<svg width="1400" height="900" viewBox="0 0 1400 900" fill="none" preserveAspectRatio="xMidYMid meet" xmlns="http://www.w3.org/2000/svg">
  <defs>
    <linearGradient id="arch-bg" x1="36" y1="24" x2="1358" y2="868" gradientUnits="userSpaceOnUse">
      <stop stop-color="#071120"/>
      <stop offset="0.56" stop-color="#0D1C34"/>
      <stop offset="1" stop-color="#081321"/>
    </linearGradient>
    <radialGradient id="arch-blue" cx="0" cy="0" r="1" gradientUnits="userSpaceOnUse" gradientTransform="translate(1150 140) rotate(140) scale(320 280)">
      <stop stop-color="#0A84FF" stop-opacity="0.22"/>
      <stop offset="1" stop-color="#0A84FF" stop-opacity="0"/>
    </radialGradient>
  </defs>

  <rect width="1400" height="900" rx="42" fill="#040A14"/>
  <rect x="34" y="32" width="1332" height="836" rx="40" fill="url(#arch-bg)"/>
  <rect x="34" y="32" width="1332" height="836" rx="40" fill="url(#arch-blue)"/>
  <rect x="72" y="70" width="1256" height="760" rx="34" fill="#0A1526" fill-opacity="0.84" stroke="#F3F7FF" stroke-opacity="0.08"/>

  <g font-family="-apple-system, BlinkMacSystemFont, 'Segoe UI', sans-serif">
    <text x="110" y="132" fill="#FFFFFF" font-size="52" font-weight="800">Architecture Signal</text>
    <text x="110" y="174" fill="#AFC6E9" font-size="21" font-weight="500">Workflows on top, product lanes in the middle, proof spine underneath.</text>

    <rect x="110" y="226" width="1180" height="104" rx="28" fill="#102239" stroke="#5AC8FA" stroke-opacity="0.22"/>
    <text x="144" y="266" fill="#9FC5FF" font-size="21" font-weight="700">Workflow layer</text>
    <text x="144" y="304" fill="#FFFFFF" font-size="28" font-weight="800">IntelligentCamera · SmartTranslator · VoiceAssistant · future flagship demos</text>

    <rect x="110" y="392" width="344" height="214" rx="28" fill="#111F35" stroke="#F05138" stroke-opacity="0.24"/>
    <text x="142" y="434" fill="#FFB3A8" font-size="21" font-weight="700">Perception lane</text>
    <text x="142" y="480" fill="#FFFFFF" font-size="35" font-weight="800">Vision + ML</text>
    <text x="142" y="526" fill="#D7E6FF" font-size="21" font-weight="500">Classification</text>
    <text x="142" y="558" fill="#D7E6FF" font-size="21" font-weight="500">Detection</text>
    <text x="142" y="590" fill="#D7E6FF" font-size="21" font-weight="500">OCR and enhancement</text>

    <rect x="528" y="392" width="344" height="214" rx="28" fill="#102239" stroke="#0A84FF" stroke-opacity="0.24"/>
    <text x="560" y="434" fill="#9FC5FF" font-size="21" font-weight="700">Language lane</text>
    <text x="560" y="480" fill="#FFFFFF" font-size="35" font-weight="800">NLP + Speech</text>
    <text x="560" y="516" fill="#FFFFFF" font-size="35" font-weight="800">+ Reasoning</text>
    <text x="560" y="558" fill="#D7E6FF" font-size="21" font-weight="500">Summaries</text>
    <text x="560" y="590" fill="#D7E6FF" font-size="21" font-weight="500">Entities and intent</text>
    <text x="560" y="622" fill="#D7E6FF" font-size="21" font-weight="500">Voice output</text>

    <rect x="946" y="392" width="344" height="214" rx="28" fill="#10281D" stroke="#34C759" stroke-opacity="0.24"/>
    <text x="978" y="434" fill="#B5F0C5" font-size="21" font-weight="700">Trust lane</text>
    <text x="978" y="480" fill="#FFFFFF" font-size="33" font-weight="800">Privacy + Network</text>
    <text x="978" y="516" fill="#FFFFFF" font-size="33" font-weight="800">+ Metrics</text>
    <text x="978" y="558" fill="#D7E6FF" font-size="21" font-weight="500">Tokenization</text>
    <text x="978" y="590" fill="#D7E6FF" font-size="21" font-weight="500">Boundary controls</text>
    <text x="978" y="622" fill="#D7E6FF" font-size="21" font-weight="500">Observability</text>

    <rect x="220" y="694" width="960" height="92" rx="24" fill="#1B1A12" stroke="#FF9F0A" stroke-opacity="0.24"/>
    <text x="252" y="732" fill="#FFD4A6" font-size="20" font-weight="700">Proof spine</text>
    <text x="252" y="766" fill="#FFFFFF" font-size="19" font-weight="700">Benchmarks → generated proof → immutable bundles → public claims</text>
  </g>

  <path d="M700 330V392" stroke="#D7E6FF" stroke-opacity="0.28" stroke-width="4"/>
  <path d="M282 330V392" stroke="#D7E6FF" stroke-opacity="0.18" stroke-width="3"/>
  <path d="M1118 330V392" stroke="#D7E6FF" stroke-opacity="0.18" stroke-width="3"/>
  <path d="M282 606V694" stroke="#D7E6FF" stroke-opacity="0.16" stroke-width="3"/>
  <path d="M700 606V694" stroke="#D7E6FF" stroke-opacity="0.24" stroke-width="4"/>
  <path d="M1118 606V694" stroke="#D7E6FF" stroke-opacity="0.16" stroke-width="3"/>
</svg>
