<svg width="1400" height="940" viewBox="0 0 1400 940" fill="none" preserveAspectRatio="xMidYMid meet" xmlns="http://www.w3.org/2000/svg">
  <defs>
    <linearGradient id="bg" x1="72" y1="52" x2="1328" y2="892" gradientUnits="userSpaceOnUse">
      <stop stop-color="#081322"/>
      <stop offset="0.54" stop-color="#0F1D33"/>
      <stop offset="1" stop-color="#091523"/>
    </linearGradient>
  </defs>

  <rect width="1400" height="940" rx="40" fill="#050B16"/>
  <rect x="40" y="38" width="1320" height="864" rx="40" fill="url(#bg)"/>
  <rect x="76" y="72" width="1248" height="796" rx="34" fill="#0B1728" fill-opacity="0.76" stroke="#F2F7FF" stroke-opacity="0.08"/>

  <g font-family="-apple-system, BlinkMacSystemFont, 'Segoe UI', sans-serif">
    <text x="112" y="132" fill="#FFFFFF" font-size="50" font-weight="800">Product Surface</text>
    <text x="112" y="174" fill="#AFC6E9" font-size="21" font-weight="500">An Apple-native workflow stack with a maintained best-first path.</text>

    <rect x="112" y="224" width="364" height="214" rx="28" fill="#111F35" stroke="#F05138" stroke-opacity="0.24"/>
    <rect x="140" y="250" width="110" height="36" rx="18" fill="#F05138"/>
    <text x="171" y="274" fill="#FFFFFF" font-size="18" font-weight="800">Vision</text>
    <text x="140" y="324" fill="#FFFFFF" font-size="34" font-weight="800">Scene understanding</text>
    <text x="140" y="368" fill="#D7E6FF" font-size="19" font-weight="500">Classification, OCR, detection,</text>
    <text x="140" y="398" fill="#D7E6FF" font-size="19" font-weight="500">segmentation, and enhancement.</text>
    <text x="140" y="428" fill="#9FC5FF" font-size="18" font-weight="700">Best first path: IntelligentCamera</text>

    <rect x="518" y="224" width="364" height="214" rx="28" fill="#102239" stroke="#0A84FF" stroke-opacity="0.24"/>
    <rect x="546" y="250" width="168" height="36" rx="18" fill="#0A84FF"/>
    <text x="564" y="274" fill="#FFFFFF" font-size="17" font-weight="800">NaturalLanguage</text>
    <text x="546" y="324" fill="#FFFFFF" font-size="34" font-weight="800">Text intelligence</text>
    <text x="546" y="368" fill="#D7E6FF" font-size="19" font-weight="500">Summaries, entities, keywords,</text>
    <text x="546" y="398" fill="#D7E6FF" font-size="19" font-weight="500">topics, and Apple-native analysis.</text>
    <text x="546" y="428" fill="#9FC5FF" font-size="18" font-weight="700">Compare against raw NaturalLanguage APIs</text>

    <rect x="924" y="224" width="364" height="214" rx="28" fill="#10281D" stroke="#34C759" stroke-opacity="0.24"/>
    <rect x="952" y="250" width="118" height="36" rx="18" fill="#34C759"/>
    <text x="981" y="274" fill="#FFFFFF" font-size="18" font-weight="800">Privacy</text>
    <text x="952" y="324" fill="#FFFFFF" font-size="34" font-weight="800">Guard rails</text>
    <text x="952" y="368" fill="#D7E6FF" font-size="19" font-weight="500">Tokenization, anonymization, and</text>
    <text x="952" y="398" fill="#D7E6FF" font-size="19" font-weight="500">safer handling for AI features.</text>
    <text x="952" y="428" fill="#B5F0C5" font-size="18" font-weight="700">Privacy-aware by default</text>

    <rect x="112" y="474" width="364" height="214" rx="28" fill="#171A30" stroke="#BF5AF2" stroke-opacity="0.24"/>
    <rect x="140" y="500" width="120" height="36" rx="18" fill="#BF5AF2"/>
    <text x="170" y="524" fill="#FFFFFF" font-size="18" font-weight="800">Speech</text>
    <text x="140" y="574" fill="#FFFFFF" font-size="34" font-weight="800">Voice output</text>
    <text x="140" y="618" fill="#D7E6FF" font-size="19" font-weight="500">Speech synthesis, voice catalogs,</text>
    <text x="140" y="648" fill="#D7E6FF" font-size="19" font-weight="500">and assistant-style responses.</text>
    <text x="140" y="678" fill="#E6CBFF" font-size="18" font-weight="700">Maintained secondary demo path</text>

    <rect x="518" y="474" width="364" height="214" rx="28" fill="#251F13" stroke="#FF9F0A" stroke-opacity="0.24"/>
    <rect x="546" y="500" width="162" height="36" rx="18" fill="#FF9F0A"/>
    <text x="574" y="524" fill="#FFFFFF" font-size="18" font-weight="800">Benchmarks</text>
    <text x="546" y="574" fill="#FFFFFF" font-size="34" font-weight="800">Evidence discipline</text>
    <text x="546" y="618" fill="#D7E6FF" font-size="19" font-weight="500">Versioned artifacts, thresholds,</text>
    <text x="546" y="648" fill="#D7E6FF" font-size="19" font-weight="500">provenance, and immutable bundles.</text>
    <text x="546" y="678" fill="#FFD4A6" font-size="18" font-weight="700">Claims stay inside the proof envelope</text>

    <rect x="924" y="474" width="364" height="214" rx="28" fill="#0E2037" stroke="#5AC8FA" stroke-opacity="0.24"/>
    <rect x="952" y="500" width="170" height="36" rx="18" fill="#5AC8FA"/>
    <text x="978" y="524" fill="#FFFFFF" font-size="18" font-weight="800">Release Proof</text>
    <text x="952" y="574" fill="#FFFFFF" font-size="34" font-weight="800">Public trust surface</text>
    <text x="952" y="618" fill="#D7E6FF" font-size="19" font-weight="500">Readiness, release proof, media,</text>
    <text x="952" y="648" fill="#D7E6FF" font-size="19" font-weight="500">and required device floor.</text>
    <text x="952" y="678" fill="#9FC5FF" font-size="18" font-weight="700">Mac + iPhone, release-grade posture</text>

    <rect x="112" y="748" width="1176" height="82" rx="24" fill="#101C2D" stroke="#F2F7FF" stroke-opacity="0.08"/>
    <text x="146" y="782" fill="#FFFFFF" font-size="21" font-weight="800">Flagship flow</text>
    <text x="146" y="812" fill="#D7E6FF" font-size="20" font-weight="600">Vision → NLP → Privacy → release proof</text>
    <text x="812" y="782" fill="#FFFFFF" font-size="21" font-weight="800">Current strongest demo</text>
    <text x="812" y="812" fill="#9FC5FF" font-size="20" font-weight="700">IntelligentCamera</text>
  </g>
</svg>
