<svg width="1400" height="860" viewBox="0 0 1400 860" fill="none" preserveAspectRatio="xMidYMid meet" xmlns="http://www.w3.org/2000/svg">
  <defs>
    <linearGradient id="bg" x1="64" y1="48" x2="1332" y2="820" gradientUnits="userSpaceOnUse">
      <stop stop-color="#081322"/>
      <stop offset="0.52" stop-color="#0E1B31"/>
      <stop offset="1" stop-color="#091423"/>
    </linearGradient>
    <radialGradient id="blueGlow" cx="0" cy="0" r="1" gradientUnits="userSpaceOnUse" gradientTransform="translate(1148 164) rotate(135) scale(360 330)">
      <stop stop-color="#0A84FF" stop-opacity="0.48"/>
      <stop offset="1" stop-color="#0A84FF" stop-opacity="0"/>
    </radialGradient>
    <radialGradient id="amberGlow" cx="0" cy="0" r="1" gradientUnits="userSpaceOnUse" gradientTransform="translate(248 808) rotate(-21) scale(380 250)">
      <stop stop-color="#FF8A00" stop-opacity="0.28"/>
      <stop offset="1" stop-color="#FF8A00" stop-opacity="0"/>
    </radialGradient>
    <linearGradient id="panel" x1="860" y1="136" x2="1260" y2="676" gradientUnits="userSpaceOnUse">
      <stop stop-color="#162641" stop-opacity="0.96"/>
      <stop offset="1" stop-color="#0E192B" stop-opacity="0.94"/>
    </linearGradient>
  </defs>

  <rect width="1400" height="860" rx="38" fill="#050B16"/>
  <rect x="36" y="34" width="1328" height="792" rx="38" fill="url(#bg)"/>
  <rect x="36" y="34" width="1328" height="792" rx="38" fill="url(#blueGlow)"/>
  <rect x="36" y="34" width="1328" height="792" rx="38" fill="url(#amberGlow)"/>

  <rect x="86" y="84" width="690" height="622" rx="32" fill="#0A1526" fill-opacity="0.76" stroke="#F3F7FF" stroke-opacity="0.08"/>
  <rect x="846" y="140" width="452" height="510" rx="30" fill="url(#panel)" stroke="#F3F7FF" stroke-opacity="0.08"/>

  <g font-family="-apple-system, BlinkMacSystemFont, 'Segoe UI', sans-serif">
    <rect x="126" y="124" width="188" height="40" rx="20" fill="#132238" stroke="#EEF4FF" stroke-opacity="0.10"/>
    <text x="154" y="150" fill="#DBE8FF" font-size="20" font-weight="700">APPLE-NATIVE AI</text>

    <text x="126" y="248" fill="#FFFFFF" font-size="80" font-weight="800">SwiftIntelligence</text>
    <text x="126" y="306" fill="#9FC5FF" font-size="30" font-weight="700">Modular on-device AI for Apple platforms</text>

    <text x="126" y="392" fill="#E7F0FF" font-size="24" font-weight="500">Ship real Apple-native workflows across Vision,</text>
    <text x="126" y="428" fill="#E7F0FF" font-size="24" font-weight="500">NaturalLanguage, Speech, privacy controls,</text>
    <text x="126" y="464" fill="#E7F0FF" font-size="24" font-weight="500">benchmarks, and release proof.</text>

    <rect x="126" y="524" width="166" height="50" rx="18" fill="#F05138"/>
    <text x="169" y="556" fill="#FFFFFF" font-size="22" font-weight="800">Vision</text>
    <rect x="310" y="524" width="228" height="50" rx="18" fill="#0A84FF"/>
    <text x="351" y="556" fill="#FFFFFF" font-size="22" font-weight="800">NaturalLanguage</text>
    <rect x="556" y="524" width="158" height="50" rx="18" fill="#34C759"/>
    <text x="603" y="556" fill="#FFFFFF" font-size="22" font-weight="800">Privacy</text>

    <rect x="126" y="610" width="610" height="74" rx="22" fill="#F7FAFF" fill-opacity="0.06" stroke="#FFFFFF" stroke-opacity="0.08"/>
    <text x="160" y="642" fill="#DCE8FF" font-size="19" font-weight="700">Flagship path</text>
    <text x="160" y="673" fill="#FFFFFF" font-size="30" font-weight="800">IntelligentCamera  →  Vision  →  NLP  →  Privacy</text>

    <text x="888" y="212" fill="#FFFFFF" font-size="34" font-weight="800">Release Signal</text>

    <rect x="888" y="246" width="368" height="78" rx="22" fill="#0D1F36" stroke="#5AC8FA" stroke-opacity="0.22"/>
    <text x="918" y="280" fill="#9FC5FF" font-size="21" font-weight="700">Publish readiness</text>
    <text x="918" y="309" fill="#FFFFFF" font-size="32" font-weight="800">ready</text>

    <rect x="888" y="342" width="368" height="78" rx="22" fill="#1B160B" stroke="#FF9F0A" stroke-opacity="0.22"/>
    <text x="918" y="376" fill="#FFD6AA" font-size="21" font-weight="700">Proof posture</text>
    <text x="918" y="405" fill="#FFFFFF" font-size="32" font-weight="800">release-grade</text>

    <rect x="888" y="438" width="368" height="78" rx="22" fill="#0C2118" stroke="#34C759" stroke-opacity="0.22"/>
    <text x="918" y="472" fill="#B8F2C7" font-size="21" font-weight="700">Required devices</text>
    <text x="918" y="501" fill="#FFFFFF" font-size="32" font-weight="800">Mac + iPhone</text>

    <rect x="888" y="534" width="368" height="78" rx="22" fill="#1A1325" stroke="#BF5AF2" stroke-opacity="0.22"/>
    <text x="918" y="568" fill="#E6CBFF" font-size="21" font-weight="700">Flagship media</text>
    <text x="918" y="597" fill="#FFFFFF" font-size="32" font-weight="800">published</text>
  </g>
</svg>
